<svg version="1.1" id="Camada_1" xmlns="http://www.w3.org/2000/svg" xmlns:xlink="http://www.w3.org/1999/xlink" x="0px" y="0px"
	 width="500px" height="128px" viewBox="0 0 500 128" style="enable-background:new 0 0 500 128;" xml:space="preserve">
<g>
	<path d="M76,60.3c0-4,0-8,0-11.9c0-2.1,0.7-3.6,2.5-4.7c6-3.7,11.9-7.6,17.9-11.4c5.1-3.3,10.3-6.5,15.4-9.8
		c1.8-1.2,3.7-2.3,5.5-3.5c1.7-1.1,3.5-1,5.2,0.1c3.9,2.5,7.8,5.1,11.8,7.6c5.5,3.5,10.9,7,16.4,10.5c3.6,2.3,7.2,4.5,10.8,6.7
		c1.6,1,2.3,2.3,2.3,4.1c0,8.2-0.1,16.5,0,24.7c0,3.2-2.5,4.1-4.5,5.5c-0.4,0.3-0.9,0.5-1.4,0.7c-7,4.5-14,9-21.1,13.5
		c-4.7,3-9.5,6-14.3,9c-1.9,1.2-3.8,1.2-5.7,0c-6.2-4-12.4-7.9-18.6-11.9c-5.3-3.4-10.6-6.7-15.9-10.1c-1.3-0.8-2.6-1.7-4-2.4
		c-2-1.1-2.7-2.7-2.7-5C76,68.2,76,64.3,76,60.3z M115.8,91c0-5.4,0-10.4,0-15.4c0-0.4-0.5-1-1-1.3c-4.6-2.9-9.2-5.9-13.9-8.7
		c-0.4-0.2-1.1-0.2-1.5,0c-2.4,1.4-4.7,3-7,4.4c-1.6,1-3.1,2-4.9,3.1C97,79.1,106.2,84.9,115.8,91z M124.1,91
		c9.6-6.1,18.8-11.9,28.1-17.8c-3.9-2.5-7.6-4.8-11.2-7.2c-1-0.7-1.7-0.6-2.7,0c-3.5,2.3-6.9,4.5-10.5,6.5c-2.6,1.5-4.4,3.1-3.7,6.5
		c0.3,1.3,0,2.8,0,4.1C124.1,85.6,124.1,88.1,124.1,91z M115.8,29.7c-9.6,6-18.8,11.9-28.2,17.8c4.3,2.7,8.4,5.3,12.5,7.9
		c4.8-3,9.5-6,14.2-9c1.2-0.7,1.6-1.6,1.5-2.9c-0.1-2.9,0-5.9,0-8.8C115.8,33.2,115.8,31.6,115.8,29.7z M124.1,29.7
		c0,5.3,0,10.2,0.1,15.1c0,0.5,0.6,1,1.1,1.4c3.3,2.2,6.7,4.3,9.9,6.5c2.8,1.9,5.5,3.5,8.4,0.2c0.1-0.1,0.3-0.1,0.5-0.2
		c2.7-1.7,5.3-3.4,8.1-5.2C142.8,41.6,133.7,35.8,124.1,29.7z M132.2,60.3c-3.9-2.6-7.6-5-11.3-7.4c-0.4-0.3-1.2-0.4-1.5-0.2
		c-3.8,2.4-7.6,4.9-11.5,7.5c0.6,0.4,1.1,0.8,1.5,1.1c3.1,2,6.2,3.9,9.3,6c1,0.7,1.8,0.6,2.8,0c2.1-1.4,4.2-2.8,6.3-4.2
		C129.1,62.1,130.6,61.3,132.2,60.3z M155.4,65.5c0-3.5,0-6.8,0-10.3c-2.8,1.7-5.4,3.4-8.3,5.1C150.1,62.1,152.7,63.7,155.4,65.5z
		 M84.4,65.5c2.8-1.8,5.4-3.5,8.2-5.2c-2.8-1.8-5.4-3.4-8.2-5.1C84.4,58.7,84.4,61.9,84.4,65.5z"/>
	<path d="M446.7,47.8c0,1.2,0,1.8,0,2.5c0,10.8,0,21.6,0,32.4c0,0.8-0.2,1.7-0.4,2.5c-0.8,2.5-2.3,3.6-4.5,3.3
		c-2.2-0.3-3.7-2.2-3.7-4.6c0-15.7,0-31.4,0-47.1c0-1.9,1.3-3.8,2.9-4.4c1.7-0.6,3.4-0.1,4.9,1.7c2.4,2.9,4.8,5.8,7.2,8.8
		c5.3,6.4,10.6,12.9,15.9,19.3c2.5,3.1,5,6.1,7.6,9.2c0.4,0.5,0.9,0.8,1.7,1.6c0-1.1,0-1.8,0-2.5c0-11,0-22,0-33.1
		c0-0.7,0-1.5,0.2-2.2c0.4-1.8,2-3,4-3c1.4,0,4,1.4,4.1,3.1c0,0.6,0.1,1.1,0.1,1.7c0,15.6,0,31.2,0,46.7c0,2.1-0.6,3.5-2.6,4.4
		c-1.6,0.7-3.4,0.5-4.6-0.8c-1-1-2-2.1-2.9-3.2c-4.5-5.5-9-11.1-13.4-16.6c-2.7-3.3-5.5-6.7-8.2-10c-2.3-2.8-4.6-5.6-6.9-8.4
		C447.7,48.9,447.4,48.6,446.7,47.8z"/>
	<path d="M184.7,60.3c0-7.8,0-15.6,0-23.4c0-3.4,1.4-4.9,4.8-4.9c6.9,0,13.7-0.2,20.6,0.2c7.1,0.4,13,3.4,18.3,8.3
		c9.1,8.3,11,26.1,2.1,37.2c-5.2,6.4-12.1,10.1-20.4,10.5c-7.1,0.4-14.2,0.2-21.3,0.2c-2.7,0-4.1-1.6-4.1-4.5
		C184.7,76.1,184.7,68.2,184.7,60.3z M193.1,80.4c0.4,0.1,0.6,0.1,0.8,0.1c4.7,0,9.3,0.1,14,0c6.2-0.2,11.7-2.5,15.6-7.3
		c5.1-6.4,5.9-13.7,2.8-21.2c-3-7.4-9.2-11.1-16.9-11.8c-5.2-0.4-10.5-0.1-15.7-0.2c-0.2,0-0.3,0.1-0.5,0.2
		C193.1,53.7,193.1,67,193.1,80.4z"/>
	<path d="M385.2,40.1c0,5.5,0,10.7,0,16.3c0.7,0,1.4,0,2,0c5,0,9.9,0,14.9,0c2.3,0,3.7,1,4.3,2.8c0.8,2.7-1,5.1-4.1,5.2
		c-5,0-9.9,0-14.9,0c-0.7,0-1.4,0-2.2,0c0,5.5,0,10.7,0,16.3c0.7,0,1.4,0,2.1,0c8.3,0,16.6,0,24.9,0c1.1,0,2.2,0.2,3.2,0.5
		c1.6,0.5,2.2,1.9,2.2,3.4c0,1.6-0.5,3-2.2,3.5c-1,0.3-2.1,0.5-3.2,0.5c-10,0-20.1-0.1-30.1,0.1c-3.3,0-5.6-1.1-5.6-5.8
		c-0.1-15,0-30,0-45c0-0.8,0.2-1.6,0.4-2.3c0.8-2.6,1.8-3.4,4.5-3.4c8.9,0,17.8,0,26.7,0c1.7,0,3.4-0.1,5,0.1
		c1.2,0.1,2.6,0.5,3.5,1.2c2.1,1.9,1.2,5.5-1.6,6.3c-0.9,0.3-1.8,0.3-2.7,0.3c-8.2,0-16.5,0-24.7,0
		C386.8,40.1,386.1,40.1,385.2,40.1z"/>
	<path d="M261.9,40.1c0,5.5,0,10.7,0,16.3c0.7,0,1.4,0,2.1,0c5,0,10,0,15.1,0c3.5,0,5.4,3.2,3.7,6.1c-0.9,1.4-2.3,1.9-3.8,1.9
		c-4.9,0-9.8,0-14.7,0c-0.7,0-1.4,0-2.2,0c0,5.4,0,10.7,0,16.3c0.7,0,1.4,0,2,0c8.3,0,16.6,0,24.9,0c0.8,0,1.6,0,2.4,0.2
		c1.8,0.3,3.1,1.9,3,3.8c0,1.9-1.2,3.4-3,3.7c-0.8,0.1-1.6,0.2-2.4,0.2c-10.2,0-20.3,0-30.5,0c-3.6,0-5-1.4-5-5
		c0-15.5,0-30.9,0-46.4c0-3.7,1.4-5,5-5c10.2,0,20.3,0,30.5,0c3.6,0,5.3,1.3,5.4,3.9c0,2.7-1.7,4-5.5,4c-8.2,0-16.5,0-24.7,0
		C263.5,40.1,262.8,40.1,261.9,40.1z"/>
	<path d="M323.5,67.8c0,5.6,0,10.9,0,16.2c0,1.9-0.7,3.3-2.5,4.1c-2.6,1.2-5.5-0.2-5.8-3.1c-0.1-0.5,0-1,0-1.6c0-15.4,0-30.8,0-46.2
		c0-3.8,1.3-5.1,5.1-5.1c7.7,0,15.4-0.3,23,0.3c7.1,0.5,12.5,4.3,15,11.2c2.5,6.7,1.4,13.1-3.5,18.3c-3.7,3.9-8.4,5.9-13.9,5.8
		c-5.1,0-10.1,0-15.2,0C325,67.8,324.4,67.8,323.5,67.8z M323.6,40.2c0,6.6,0,13,0,19.5c6.2,0,12.2,0.1,18.1-0.1
		c1.7-0.1,3.6-0.8,5.1-1.8c3.4-2.2,4.9-6.4,4-10.3c-1-4-4.3-7.2-8.6-7.4C336.1,40,330,40.2,323.6,40.2z"/>
	<path d="M36.3,32.1c7.8,0.1,14.8,2.1,20.5,7.4c0.8,0.8,1.7,1.6,2.1,2.6c0.7,1.7-0.9,4.1-3,4.7c-1.5,0.4-2.8,0-4-1
		c-3.3-2.7-6.8-4.9-11.1-5.4c-7.8-1-14.5,0.7-20.3,6.5c-5.6,5.7-7,17.9-1.3,25.2c5.8,7.4,13.7,9.6,22.8,7.8c3.7-0.8,6.8-2.8,9.7-5
		c2.7-2,5.7-1.6,7.1,1.3c0.4,0.8,0.2,2.3-0.3,3c-4,5-9.6,7.4-15.7,8.7c-8.3,1.7-16.1,0.1-23.4-4.3c-1-0.6-1.9-1.4-2.7-2.1
		C5,71.6,4.8,55.3,11.3,45.3c5-7.8,12.5-12,21.8-12.9C34.2,32.2,35.3,32.2,36.3,32.1z"/>
</g>
</svg>
